<svg xmlns="http://www.w3.org/2000/svg" version="1.1" xmlns:xlink="http://www.w3.org/1999/xlink" xmlns:svgjs="http://svgjs.dev/svgjs" width="1440" height="560" preserveAspectRatio="none" viewBox="0 0 1440 560">
    <g mask="url(&quot;#SvgjsMask1009&quot;)" fill="none">
        <path d="M15.56 140C15.56 125.24 2.08 123.71 0 105C-5.7 53.71 -19.53 32.97 0 0C11.58 -19.53 33.55 -9.15 62.22 0C103.55 13.19 106.16 44.68 140 44.68C160.49 44.68 147.62 7.42 170.88 0C217.62 -14.92 225.44 0 280 0C350 0 350 0 420 0C441 0 446.4 -12.13 462 0C516.4 42.31 504.22 64.1 560 108.89C591.4 134.1 623.4 108.31 636.36 140C658.4 193.86 609.46 224.51 630 280C641.28 310.46 662.81 307.7 700 311.9C767.81 319.56 772.27 315.57 840 303.73C863.48 299.62 882.42 298.25 882.42 280C882.42 245.21 869.84 231.32 840 197.65C807.8 161.32 783.18 180.21 758.33 140C722.09 81.38 695.61 38.08 717.82 0C736.44 -31.92 778.91 0 840 0C910 0 910 0 980 0C1050 0 1050 0 1120 0C1190 0 1190 0 1260 0C1292.31 0 1293.8 -7.19 1324.62 0C1363.8 9.14 1364.2 12.73 1400 32.67C1471.89 72.73 1477.57 72.14 1540 120C1547.57 125.8 1540 130 1540 140C1540 210 1540 210 1540 280C1540 340.87 1545.89 342.87 1540 401.74C1538.89 412.87 1534.65 412.47 1526 420C1464.65 473.38 1462.27 470.94 1400 523.56C1379.42 540.94 1384.76 553.63 1360.3 560C1314.76 571.85 1310.15 560 1260 560C1190 560 1190 560 1120 560C1074.28 560 1067.34 575.33 1028.57 560C997.34 547.65 1006.8 504.65 980 504.65C947.52 504.65 949.23 544.49 910 560C879.23 572.17 875 560 840 560C777.37 560 777.08 561.98 714.74 560C707.08 559.76 707.05 555.56 700 555.56C696.27 555.56 697.21 559.87 693.17 560C627.21 562.09 626.59 560 560 560C490 560 490 560 420 560C350 560 350 560 280 560C210 560 210 560 140 560C70 560 64.81 565.19 0 560C-5.19 559.59 -1.38 554.21 0 548.8C16.51 484.21 35.78 479.75 35.78 420C35.78 397.26 5.88 406.84 0 383.82C-12.01 336.84 0 331.91 0 280C0 214 -6.87 209.81 0 148C0.91 139.81 15.56 146.74 15.56 140" stroke="rgba(220, 38, 38, 1)" stroke-width="2"></path>
        <path d="M280 134.91C276.29 134.91 271.76 137.49 271.76 140C271.76 142.49 276.28 144.91 280 144.91C282.52 144.91 284.24 142.47 284.24 140C284.24 137.47 282.53 134.91 280 134.91" stroke="rgba(220, 38, 38, 1)" stroke-width="2"></path>
        <path d="M1120 131.52C1114.95 131.52 1112.83 134.37 1112.22 140C1104.76 208.61 1101.64 210.3 1103.85 280C1105.53 332.8 1114.32 385 1120 385C1125.62 385 1120.49 332.21 1126.46 280C1134.49 209.71 1150.68 201.53 1148 140C1147.45 127.29 1132.84 131.52 1120 131.52" stroke="rgba(220, 38, 38, 1)" stroke-width="2"></path>
        <path d="M560 352C538.03 352 508.26 389.02 508.26 420C508.26 444.27 536.91 462.5 560 462.5C578.04 462.5 590.51 442.79 590.51 420C590.51 387.54 579.16 352 560 352" stroke="rgba(220, 38, 38, 1)" stroke-width="2"></path>
        <path d="M1260 388.5C1197.7 388.5 1127.37 402.69 1127.37 420C1127.37 437.53 1199.06 458.18 1260 458.18C1282.87 458.18 1295 438.25 1295 420C1295 403.41 1281.52 388.5 1260 388.5" stroke="rgba(220, 38, 38, 1)" stroke-width="2"></path>
        <path d="M112.78 140C127.68 131.61 126.25 119.15 140 119.15C154.27 119.15 153.73 130.61 168.82 140C223.73 174.19 229.77 206.32 280 206.32C314 206.32 337.27 173.41 337.27 140C337.27 105.89 308.38 105.84 280 71.27C250.92 35.84 222.35 21.88 222.35 0C222.35 -13.76 251.17 0 280 0C324.54 0 328.67 -11.76 369.09 0C398.67 8.61 396.59 18.14 420 40.73C469.12 88.14 485.76 81.22 514.14 140C543.51 200.85 553.89 217.18 535.5 280C512.9 357.18 471.59 344.92 432.17 420C413.84 454.92 425.93 459.98 420 500C415.56 529.98 433.52 550.53 411.43 560C363.52 580.53 345.72 560 280 560C210 560 210 560 140 560C101.57 560 74.69 584.76 63.14 560C42.03 514.76 92.65 481.36 74.67 420C61.08 373.61 23.23 388.04 0 344.49C-14.11 318.04 0 312.25 0 280C0 239 -22.14 225.49 0 198C34.25 155.49 57.68 171.03 112.78 140" stroke="rgba(220, 38, 38, 1)" stroke-width="2"></path>
        <path d="M840 78.54C811.56 38.68 781.45 24.58 781.45 0C781.45 -14.69 810.72 0 840 0C910 0 910 0 980 0C1050 0 1050 0 1120 0C1171.8 0 1223.6 -17.4 1223.6 0C1223.6 21.84 1168.71 35.85 1120 78.48C1088.72 105.85 1087.83 106.22 1063.61 140C1017.83 203.87 1024.38 273.78 980 273.78C933.23 273.78 929.74 207.54 881.31 140C859.74 109.92 861.49 108.68 840 78.54" stroke="rgba(220, 38, 38, 1)" stroke-width="2"></path>
        <path d="M1302 140C1350.02 113.8 1352.94 91 1400 91C1436.13 91 1438.01 111.32 1468.37 140C1508.01 177.44 1516.39 177.09 1540 223.24C1552.2 247.09 1540 251.62 1540 280C1540 302.83 1550.03 306.23 1540 325.65C1513.87 376.23 1507.97 376.83 1467.67 420C1437.97 451.81 1432.57 475.62 1400 475.62C1370.54 475.62 1372.53 447.04 1343.61 420C1302.53 381.6 1302.69 381.35 1260 344.75C1221.04 311.35 1180.31 317.84 1180.31 280C1180.31 229.16 1215.37 218.73 1260 167.39C1276.22 148.73 1280.02 151.99 1302 140" stroke="rgba(220, 38, 38, 1)" stroke-width="2"></path>
        <path d="M635.38 420C635.38 386.28 659.78 367.39 700 356.2C762.09 338.92 770.05 358.77 840 363.05C910.05 367.34 925.46 352 980 373.33C998.26 380.47 985.6 398.06 985.6 420C985.6 423.02 982.63 421.37 980 423.26C909.83 473.87 916.85 503.94 840 525C776.85 542.31 759.37 530.47 700 500C657.06 477.97 635.38 458.18 635.38 420" stroke="rgba(220, 38, 38, 1)" stroke-width="2"></path>
        <path d="M444.71 560C444.71 551.06 505.33 525 560 525C586.88 525 607.8 550.31 607.8 560C607.8 567.81 583.9 560 560 560C502.36 560 444.71 568.56 444.71 560" stroke="rgba(220, 38, 38, 1)" stroke-width="2"></path>
        <path d="M1100 560C1100 549.7 1103.23 533.5 1120 528.39C1183.23 509.11 1196.7 500.57 1260 511.21C1290.73 516.38 1308.06 545.66 1308.06 560C1308.06 570.06 1284.03 560 1260 560C1190 560 1190 560 1120 560C1110 560 1100 565.51 1100 560" stroke="rgba(220, 38, 38, 1)" stroke-width="2"></path>
        <path d="M280 7.64C276.5 7.64 273.82 2.35 273.82 0C273.82 -1.47 276.91 0 280 0C284.77 0 289.55 -1.67 289.55 0C289.55 2.15 284.36 7.64 280 7.64" stroke="rgba(220, 38, 38, 1)" stroke-width="2"></path>
        <path d="M390.3 140C405.39 122.39 404.58 104.36 420 104.36C436.32 104.36 450.16 117.21 453.79 140C464.16 205.03 460.6 213.37 448 280C443.71 302.68 435.71 300.72 420 318.62C374.29 370.72 345.02 360.08 325.16 420C305.02 480.77 355.83 510.92 340 560C333.25 580.92 310 560 280 560C210 560 210 560 140 560C135.88 560 132.49 563.86 131.76 560C119.27 493.86 144.29 479.43 113.56 420C78.41 352.02 49.12 365.73 0 305.17C-7.66 295.73 0 292.59 0 280C0 264 -13.02 250.83 0 248C56.98 235.62 70.29 244.66 140 249.57C210.29 254.52 222.99 292.67 280 267.72C348.14 237.89 335.39 204.07 390.3 140" stroke="rgba(220, 38, 38, 1)" stroke-width="2"></path>
        <path d="M938.69 140C923.1 74.52 917.84 52.51 933.33 0C938.49 -17.49 956.66 0 980 0C1050 0 1050 0 1120 0C1136.8 0 1153.6 -5.64 1153.6 0C1153.6 7.08 1134.79 10.51 1120 25.45C1065.49 80.51 1064.12 80.16 1015 140C994.12 165.43 998.58 196 980 196C960.42 196 946.43 172.52 938.69 140" stroke="rgba(220, 38, 38, 1)" stroke-width="2"></path>
        <path d="M1234.15 280C1234.15 263.51 1240.9 253.74 1260 243.48C1323.83 209.19 1342.19 180.23 1400 190.91C1441.02 198.49 1455.7 232.19 1457.65 280C1460.37 346.73 1435.98 351.73 1409.33 420C1407.16 425.57 1404.49 427.67 1400 427.67C1395.94 427.67 1396.27 423.66 1392.22 420C1326.27 360.33 1326.57 359.96 1260 301C1247.54 289.96 1234.15 292.27 1234.15 280" stroke="rgba(220, 38, 38, 1)" stroke-width="2"></path>
        <path d="M680.26 420C680.26 409.7 686.96 400.51 700 400.51C761 400.51 828.33 409.05 828.33 420C828.33 431.02 759.68 444.44 700 444.44C685.65 444.44 680.26 431.66 680.26 420" stroke="rgba(220, 38, 38, 1)" stroke-width="2"></path>
    </g>
    <defs>
        <mask id="SvgjsMask1009">
            <rect width="1440" height="560" fill="#ffffff"></rect>
        </mask>
    </defs>
</svg>