<svg xmlns="http://www.w3.org/2000/svg" version="1.1" xmlns:xlink="http://www.w3.org/1999/xlink" xmlns:svgjs="http://svgjs.dev/svgjs" width="1440" height="560" preserveAspectRatio="none" viewBox="0 0 1440 560">
    <g mask="url(&quot;#SvgjsMask1011&quot;)" fill="none">
        <path d="M121.33 0C134.11 1.79 128.38 19.65 140 19.65C164.38 19.65 165.61 3.89 193.33 0C235.61 -5.93 236.66 0 280 0C350 0 350 0 420 0C490 0 490 0 560 0C630 0 630 0 700 0C746.66 0 746.71 -1.14 793.33 0C816.71 0.57 824.12 -11.75 840 3.41C897.45 58.25 885.57 76.28 940 140C955.57 158.23 957.02 161.44 980 167.32C1047.02 184.47 1053.19 194.15 1120 186.05C1165.88 180.49 1205.37 164.48 1205.37 140C1205.37 114.53 1159.71 116.99 1120 86.15C1069.57 46.99 1025.08 24.75 1025.08 0C1025.08 -18.33 1072.54 0 1120 0C1190 0 1190 0 1260 0C1330 0 1330 0 1400 0C1470 0 1498.69 -28.69 1540 0C1568.69 19.92 1553.49 54.31 1540 97.22C1531.49 124.31 1496 113.2 1496 140C1496 201.55 1518.91 206.81 1540 273.91C1540.91 276.81 1540 276.96 1540 280C1540 350 1540 350 1540 420C1540 490 1575 525 1540 560C1505 595 1470 560 1400 560C1330 560 1330 560 1260 560C1190 560 1190 560 1120 560C1050 560 1050 560 980 560C910 560 910 560 840 560C770 560 770 560 700 560C630 560 630 560 560 560C490 560 490 560 420 560C350 560 350 560 280 560C210 560 210 560 140 560C70 560 37.5 592.5 0 560C-32.5 531.83 -32.11 459.64 0 438.67C37.89 413.93 79.97 475.3 140 468.57C163.19 465.97 161.99 446.69 166.44 420C177.71 352.4 181.68 344.23 171.43 280C168.46 261.39 155.07 254.33 140 254.33C126.52 254.33 126.7 266.72 114.33 280C56.7 341.92 32.91 404.73 0 404.73C-24.26 404.73 0 342.37 0 280C0 210 0 210 0 140C0 70 -32.5 37.5 0 0C28.17 -32.5 64.11 -8.03 121.33 0" stroke="rgba(24, 59, 92, 1)" stroke-width="2"></path>
        <path d="M280 91C272.09 91 262.5 116.97 262.5 140C262.5 152.36 271.86 161.78 280 161.78C287.51 161.78 293.8 151.9 293.8 140C293.8 116.51 287.74 91 280 91" stroke="rgba(24, 59, 92, 1)" stroke-width="2"></path>
        <path d="M700 252C696.71 252 694 266.43 694 280C694 285.96 696.77 291.05 700 291.05C703.39 291.05 707.24 286.12 707.24 280C707.24 266.6 703.33 252 700 252" stroke="rgba(24, 59, 92, 1)" stroke-width="2"></path>
        <path d="M1400 269.23C1368.69 269.23 1337.78 271.47 1337.78 280C1337.78 289.03 1367.92 304.35 1400 304.35C1455.03 304.35 1512 288.86 1512 280C1512 271.3 1455.8 269.23 1400 269.23" stroke="rgba(24, 59, 92, 1)" stroke-width="2"></path>
        <path d="M840 388.45C819.27 388.45 796.08 401.99 796.08 420C796.08 441.59 819.87 467.66 840 467.66C857.83 467.66 872 442.22 872 420C872 402.61 857.23 388.45 840 388.45" stroke="rgba(24, 59, 92, 1)" stroke-width="2"></path>
        <path d="M63 0C107.77 25.92 100.91 41.1 140 81.05C169.41 111.1 200 110.91 200 140C200 168.38 169.42 167.4 140 196C97.42 237.4 97.23 237.27 56 280C27.23 309.81 16.12 341.09 0 341.09C-11.88 341.09 0 310.54 0 280C0 210 0 210 0 140C0 70 -21.72 48.28 0 0C9.78 -21.72 37.77 -14.61 63 0" stroke="rgba(24, 59, 92, 1)" stroke-width="2"></path>
        <path d="M343.1 140C352.13 74.3 290.94 40.06 312.94 0C329.39 -29.94 366.47 0 420 0C490 0 490 0 560 0C604.03 0 629.83 -27.01 648.06 0C677.08 42.99 655.51 70.06 654.5 140C653.48 210.06 631.61 213.78 644 280C654.36 335.36 670.01 332.85 700 383.16C711.74 402.85 712.28 402.78 727.45 420C782.28 482.26 788.42 542.13 840 542.13C885.69 542.13 922 476.93 922 420C922 375.44 882.61 377.78 840 339.15C805.4 307.78 782.6 319.87 767.59 280C745.1 220.29 743.04 197.99 765 140C779.24 102.38 806.89 88.78 840 88.78C863.14 88.78 853.81 119.49 877.5 140C923.81 180.1 923.39 188.5 980 210C1044.64 234.55 1053.7 210.93 1120 232.11C1163.27 245.93 1199.13 247.03 1199.13 280C1199.13 331.64 1160.92 341.71 1120 401.33C1112.87 411.71 1103.03 408.87 1103.03 420C1103.03 443.66 1098.25 463.59 1120 470.91C1176.74 490.01 1199.93 448.94 1260 472.83C1311.93 493.49 1344 534.27 1344 560C1344 577.85 1302 560 1260 560C1190 560 1190 560 1120 560C1050 560 1050 560 980 560C910 560 910 560 840 560C770 560 770 560 700 560C645.56 560 606.1 589.99 591.11 560C571.1 519.99 640.26 475.05 630 420C624.7 391.59 589.54 415.12 560 393.08C495.74 345.12 500.71 337.02 442.4 280C430.71 268.57 433.59 256.17 420 256.17C395.73 256.17 372.03 256 366.67 280C353.72 337.92 364.05 355.12 383.38 420C390.72 444.63 400.16 441.11 420 459.02C477.7 511.11 538.46 531.33 538.46 560C538.46 581.82 479.23 560 420 560C357.14 560 354.91 565.72 294.29 560C284.91 559.11 288.91 546.79 280 546.79C252.6 546.79 251.26 557.21 221.67 560C181.26 563.81 180.83 560 140 560C70 560 53.39 576.61 0 560C-16.61 554.83 -16.44 518.79 0 516.44C53.56 508.79 87.68 564.57 140 540C190.35 516.35 180.37 483.08 205.33 420C231.8 353.08 215.78 345.43 242.86 280C253.12 255.21 264.07 261.81 280 239.56C314.19 191.81 335.66 194.08 343.1 140" stroke="rgba(24, 59, 92, 1)" stroke-width="2"></path>
        <path d="M1120 32.31C1099.83 32.31 1084.41 9.28 1084.41 0C1084.41 -6.87 1102.2 0 1120 0C1153.87 0 1187.74 -7.66 1187.74 0C1187.74 8.49 1151.49 32.31 1120 32.31" stroke="rgba(24, 59, 92, 1)" stroke-width="2"></path>
        <path d="M1299.38 140C1299.38 90.11 1359.51 25 1400 25C1432.82 25 1446 85.49 1446 140C1446 173.95 1428.96 201.92 1400 201.92C1355.65 201.92 1299.38 178.57 1299.38 140" stroke="rgba(24, 59, 92, 1)" stroke-width="2"></path>
        <path d="M1540 48.61C1497.87 48.61 1423.33 12.64 1423.33 0C1423.33 -11.67 1498.82 -17.16 1540 0C1557.16 7.15 1556.2 48.61 1540 48.61" stroke="rgba(24, 59, 92, 1)" stroke-width="2"></path>
        <path d="M1428 420C1428 379.09 1503.4 350 1540 350C1559.4 350 1540 385 1540 420C1540 474.19 1562.97 528.39 1540 528.39C1506.97 528.39 1428 468.28 1428 420" stroke="rgba(24, 59, 92, 1)" stroke-width="2"></path>
        <path d="M4.67 0C4.67 10.78 1.18 25.45 0 25.45C-1.16 25.45 -1.97 10.75 0 0C0.36 -1.97 4.67 -1.95 4.67 0" stroke="rgba(24, 59, 92, 1)" stroke-width="2"></path>
        <path d="M392.39 140C378.22 73.01 370.73 54.96 381.57 0C384.54 -15.04 400.78 0 420 0C490 0 490 0 560 0C575.81 0 590.97 -12.73 591.61 0C594.47 57.27 566.4 70.11 567 140C567.6 210.11 596.5 213.65 594 280C593 306.53 578.9 325.77 560 325.77C538.1 325.77 535.4 303.67 512.4 280C465.4 231.64 463.78 232.77 420 181.7C403.77 162.77 397.44 163.86 392.39 140" stroke="rgba(24, 59, 92, 1)" stroke-width="2"></path>
        <path d="M827.93 280C827.93 258.64 820.66 236.8 840 233.33C896.7 223.14 910.24 241.51 980 252.68C1050.24 263.93 1050.22 264.83 1120 278.16C1121.74 278.49 1123.04 278.73 1123.04 280C1123.04 281.99 1121.86 282.6 1120 284.67C1058.83 352.6 1014.16 344.89 996.97 420C982.66 482.56 1062.64 513.5 1057 560C1054.15 583.5 1018.5 560 980 560C942.44 560 906.18 582.83 904.88 560C902.18 512.83 986.79 481.57 972 420C954.35 346.5 906.45 354.43 840 289.86C834.41 284.43 827.93 286.91 827.93 280" stroke="rgba(24, 59, 92, 1)" stroke-width="2"></path>
        <path d="M244.22 420C244.22 375.45 259.28 328 280 328C301.94 328 329.54 376.36 329.54 420C329.54 452.74 302.46 480.75 280 480.75C259.8 480.75 244.22 451.82 244.22 420" stroke="rgba(24, 59, 92, 1)" stroke-width="2"></path>
        <path d="M365.71 560C365.71 547.75 393.17 516.39 420 516.39C445.89 516.39 471.15 547.62 471.15 560C471.15 569.42 445.58 560 420 560C392.86 560 365.71 569.55 365.71 560" stroke="rgba(24, 59, 92, 1)" stroke-width="2"></path>
        <path d="M688.33 560C688.33 551.94 692.87 536.67 700 536.67C708.25 536.67 719.09 552.86 719.09 560C719.09 564.52 709.55 560 700 560C694.16 560 688.33 563.61 688.33 560" stroke="rgba(24, 59, 92, 1)" stroke-width="2"></path>
        <path d="M1216.92 560C1216.92 554.43 1240.32 538.87 1260 538.87C1272.04 538.87 1280.36 553.76 1280.36 560C1280.36 564.33 1270.18 560 1260 560C1238.46 560 1216.92 565 1216.92 560" stroke="rgba(24, 59, 92, 1)" stroke-width="2"></path>
    </g>
    <defs>
        <mask id="SvgjsMask1011">
            <rect width="1440" height="560" fill="#ffffff"></rect>
        </mask>
    </defs>
</svg>